<svg xmlns="http://www.w3.org/2000/svg" width="928" height="202"
     viewBox="0 0 928 202">

<rect width="928" height="202" rx="6" fill="#0d1117"/>


    <defs>
      <pattern id="waves" x="0" y="0" width="200" height="20"
               patternUnits="userSpaceOnUse">
        <path d="M0,10 Q25,6 50,10 Q75,14 100,10 Q125,6 150,10 Q175,14 200,10"
              fill="none" stroke="#58a6ff" stroke-width="0.4" opacity="0.06">
          <animateTransform attributeName="transform" type="translate"
                            values="0,0;-200,0" dur="12s" repeatCount="indefinite"/>
        </path>
      </pattern>
    </defs>
    
<rect width="928" height="202" fill="url(#waves)" rx="6"/>

<!-- Navigation path (invisible) -->
<path id="shipRoute" d="M 46.5,100.5 C 54.5,100.5 54.5,100.5 62.5,100.5 C 70.5,100.5 70.5,116.5 78.5,116.5 C 86.5,116.5 86.5,116.5 94.5,116.5 C 102.5,116.5 102.5,132.5 110.5,132.5 C 118.5,132.5 118.5,132.5 126.5,132.5 C 134.5,132.5 134.5,132.5 142.5,132.5 C 150.5,132.5 150.5,132.5 158.5,132.5 C 166.5,132.5 166.5,132.5 174.5,132.5 C 182.5,132.5 182.5,132.5 190.5,132.5 C 198.5,132.5 198.5,132.5 206.5,132.5 C 214.5,132.5 214.5,132.5 222.5,132.5 C 230.5,132.5 230.5,132.5 238.5,132.5 C 246.5,132.5 246.5,132.5 254.5,132.5 C 262.5,132.5 262.5,132.5 270.5,132.5 C 278.5,132.5 278.5,132.5 286.5,132.5 C 294.5,132.5 294.5,116.5 302.5,116.5 C 310.5,116.5 310.5,116.5 318.5,116.5 C 326.5,116.5 326.5,132.5 334.5,132.5 C 342.5,132.5 342.5,132.5 350.5,132.5 C 358.5,132.5 358.5,132.5 366.5,132.5 C 374.5,132.5 374.5,132.5 382.5,132.5 C 390.5,132.5 390.5,132.5 398.5,132.5 C 406.5,132.5 406.5,132.5 414.5,132.5 C 422.5,132.5 422.5,132.5 430.5,132.5 C 438.5,132.5 438.5,132.5 446.5,132.5 C 454.5,132.5 454.5,132.5 462.5,132.5 C 470.5,132.5 470.5,132.5 478.5,132.5 C 486.5,132.5 486.5,132.5 494.5,132.5 C 502.5,132.5 502.5,132.5 510.5,132.5 C 518.5,132.5 518.5,132.5 526.5,132.5 C 534.5,132.5 534.5,132.5 542.5,132.5 C 550.5,132.5 550.5,116.5 558.5,116.5 C 566.5,116.5 566.5,116.5 574.5,116.5 C 582.5,116.5 582.5,116.5 590.5,116.5 C 598.5,116.5 598.5,116.5 606.5,116.5 C 614.5,116.5 614.5,116.5 622.5,116.5 C 630.5,116.5 630.5,116.5 638.5,116.5 C 646.5,116.5 646.5,116.5 654.5,116.5 C 662.5,116.5 662.5,116.5 670.5,116.5 C 678.5,116.5 678.5,116.5 686.5,116.5 C 694.5,116.5 694.5,116.5 702.5,116.5 C 710.5,116.5 710.5,116.5 718.5,116.5 C 726.5,116.5 726.5,116.5 734.5,116.5 C 742.5,116.5 742.5,116.5 750.5,116.5 C 758.5,116.5 758.5,116.5 766.5,116.5 C 774.5,116.5 774.5,116.5 782.5,116.5 C 790.5,116.5 790.5,116.5 798.5,116.5 C 806.5,116.5 806.5,116.5 814.5,116.5 C 822.5,116.5 822.5,116.5 830.5,116.5 C 838.5,116.5 838.5,116.5 846.5,116.5 C 854.5,116.5 854.5,116.5 862.5,116.5 C 870.5,116.5 870.5,116.5 878.5,116.5" fill="none" stroke="none"/>

<text x="32" y="55.75" fill="#8b9298" font-size="10" font-family="system-ui,sans-serif" text-anchor="end">Mon</text>
<text x="32" y="87.75" fill="#8b9298" font-size="10" font-family="system-ui,sans-serif" text-anchor="end">Wed</text>
<text x="32" y="119.75" fill="#8b9298" font-size="10" font-family="system-ui,sans-serif" text-anchor="end">Fri</text>
<text x="44" y="22" fill="#8b9298" font-size="10" font-family="system-ui,sans-serif">Jan</text>
<text x="108" y="22" fill="#8b9298" font-size="10" font-family="system-ui,sans-serif">Feb</text>
<text x="172" y="22" fill="#8b9298" font-size="10" font-family="system-ui,sans-serif">Mar</text>
<text x="252" y="22" fill="#8b9298" font-size="10" font-family="system-ui,sans-serif">Apr</text>
<text x="316" y="22" fill="#8b9298" font-size="10" font-family="system-ui,sans-serif">May</text>
<text x="396" y="22" fill="#8b9298" font-size="10" font-family="system-ui,sans-serif">Jun</text>
<text x="460" y="22" fill="#8b9298" font-size="10" font-family="system-ui,sans-serif">Jul</text>
<text x="524" y="22" fill="#8b9298" font-size="10" font-family="system-ui,sans-serif">Aug</text>
<text x="604" y="22" fill="#8b9298" font-size="10" font-family="system-ui,sans-serif">Sep</text>
<text x="668" y="22" fill="#8b9298" font-size="10" font-family="system-ui,sans-serif">Oct</text>
<text x="748" y="22" fill="#8b9298" font-size="10" font-family="system-ui,sans-serif">Nov</text>
<text x="812" y="22" fill="#8b9298" font-size="10" font-family="system-ui,sans-serif">Dec</text>

<rect x="40" y="30" width="13" height="13" rx="2" fill="#0e4429" stroke="#21262d" stroke-width="0.5"/>
<rect x="40" y="46" width="13" height="13" rx="2" fill="#26a641" stroke="#21262d" stroke-width="0.5"/>
<rect x="40" y="62" width="13" height="13" rx="2" fill="#26a641" stroke="#21262d" stroke-width="0.5"/>
<rect x="40" y="78" width="13" height="13" rx="2" fill="#0e4429" stroke="#21262d" stroke-width="0.5"/>
<rect x="40" y="94" width="13" height="13" rx="2" fill="#0d1117" stroke="#21262d" stroke-width="0.5"/>
<rect x="40" y="110" width="13" height="13" rx="2" fill="#006d32" stroke="#21262d" stroke-width="0.5"/>
<rect x="40" y="126" width="13" height="13" rx="2" fill="#0d1117" stroke="#21262d" stroke-width="0.5"/>
<rect x="56" y="30" width="13" height="13" rx="2" fill="#0d1117" stroke="#21262d" stroke-width="0.5"/>
<rect x="56" y="46" width="13" height="13" rx="2" fill="#0d1117" stroke="#21262d" stroke-width="0.5"/>
<rect x="56" y="62" width="13" height="13" rx="2" fill="#0e4429" stroke="#21262d" stroke-width="0.5"/>
<rect x="56" y="78" width="13" height="13" rx="2" fill="#006d32" stroke="#21262d" stroke-width="0.5"/>
<rect x="56" y="94" width="13" height="13" rx="2" fill="#006d32" stroke="#21262d" stroke-width="0.5"/>
<rect x="56" y="110" width="13" height="13" rx="2" fill="#0e4429" stroke="#21262d" stroke-width="0.5"/>
<rect x="56" y="126" width="13" height="13" rx="2" fill="#0d1117" stroke="#21262d" stroke-width="0.5"/>
<rect x="72" y="30" width="13" height="13" rx="2" fill="#0d1117" stroke="#21262d" stroke-width="0.5"/>
<rect x="72" y="46" width="13" height="13" rx="2" fill="#0e4429" stroke="#21262d" stroke-width="0.5"/>
<rect x="72" y="62" width="13" height="13" rx="2" fill="#0d1117" stroke="#21262d" stroke-width="0.5"/>
<rect x="72" y="78" width="13" height="13" rx="2" fill="#0d1117" stroke="#21262d" stroke-width="0.5"/>
<rect x="72" y="94" width="13" height="13" rx="2" fill="#0d1117" stroke="#21262d" stroke-width="0.5"/>
<rect x="72" y="110" width="13" height="13" rx="2" fill="#0e4429" stroke="#21262d" stroke-width="0.5"/>
<rect x="72" y="126" width="13" height="13" rx="2" fill="#0d1117" stroke="#21262d" stroke-width="0.5"/>
<rect x="88" y="30" width="13" height="13" rx="2" fill="#0d1117" stroke="#21262d" stroke-width="0.5"/>
<rect x="88" y="46" width="13" height="13" rx="2" fill="#006d32" stroke="#21262d" stroke-width="0.5"/>
<rect x="88" y="62" width="13" height="13" rx="2" fill="#0e4429" stroke="#21262d" stroke-width="0.5"/>
<rect x="88" y="78" width="13" height="13" rx="2" fill="#0e4429" stroke="#21262d" stroke-width="0.5"/>
<rect x="88" y="94" width="13" height="13" rx="2" fill="#006d32" stroke="#21262d" stroke-width="0.5"/>
<rect x="88" y="110" width="13" height="13" rx="2" fill="#0d1117" stroke="#21262d" stroke-width="0.5"/>
<rect x="88" y="126" width="13" height="13" rx="2" fill="#0d1117" stroke="#21262d" stroke-width="0.5"/>
<rect x="104" y="30" width="13" height="13" rx="2" fill="#0d1117" stroke="#21262d" stroke-width="0.5"/>
<rect x="104" y="46" width="13" height="13" rx="2" fill="#0e4429" stroke="#21262d" stroke-width="0.5"/>
<rect x="104" y="62" width="13" height="13" rx="2" fill="#0e4429" stroke="#21262d" stroke-width="0.5"/>
<rect x="104" y="78" width="13" height="13" rx="2" fill="#006d32" stroke="#21262d" stroke-width="0.5"/>
<rect x="104" y="94" width="13" height="13" rx="2" fill="#0d1117" stroke="#21262d" stroke-width="0.5"/>
<rect x="104" y="110" width="13" height="13" rx="2" fill="#26a641" stroke="#21262d" stroke-width="0.5"/>
<rect x="104" y="126" width="13" height="13" rx="2" fill="#0d1117" stroke="#21262d" stroke-width="0.5"/>
<rect x="120" y="30" width="13" height="13" rx="2" fill="#0d1117" stroke="#21262d" stroke-width="0.5"/>
<rect x="120" y="46" width="13" height="13" rx="2" fill="#0e4429" stroke="#21262d" stroke-width="0.5"/>
<rect x="120" y="62" width="13" height="13" rx="2" fill="#0e4429" stroke="#21262d" stroke-width="0.5"/>
<rect x="120" y="78" width="13" height="13" rx="2" fill="#006d32" stroke="#21262d" stroke-width="0.5"/>
<rect x="120" y="94" width="13" height="13" rx="2" fill="#006d32" stroke="#21262d" stroke-width="0.5"/>
<rect x="120" y="110" width="13" height="13" rx="2" fill="#26a641" stroke="#21262d" stroke-width="0.5"/>
<rect x="120" y="126" width="13" height="13" rx="2" fill="#0d1117" stroke="#21262d" stroke-width="0.5"/>
<rect x="136" y="30" width="13" height="13" rx="2" fill="#0e4429" stroke="#21262d" stroke-width="0.5"/>
<rect x="136" y="46" width="13" height="13" rx="2" fill="#006d32" stroke="#21262d" stroke-width="0.5"/>
<rect x="136" y="62" width="13" height="13" rx="2" fill="#0e4429" stroke="#21262d" stroke-width="0.5"/>
<rect x="136" y="78" width="13" height="13" rx="2" fill="#0e4429" stroke="#21262d" stroke-width="0.5"/>
<rect x="136" y="94" width="13" height="13" rx="2" fill="#26a641" stroke="#21262d" stroke-width="0.5"/>
<rect x="136" y="110" width="13" height="13" rx="2" fill="#26a641" stroke="#21262d" stroke-width="0.5"/>
<rect x="136" y="126" width="13" height="13" rx="2" fill="#0e4429" stroke="#21262d" stroke-width="0.5"/>
<rect x="152" y="30" width="13" height="13" rx="2" fill="#0e4429" stroke="#21262d" stroke-width="0.5"/>
<rect x="152" y="46" width="13" height="13" rx="2" fill="#0e4429" stroke="#21262d" stroke-width="0.5"/>
<rect x="152" y="62" width="13" height="13" rx="2" fill="#0e4429" stroke="#21262d" stroke-width="0.5"/>
<rect x="152" y="78" width="13" height="13" rx="2" fill="#0d1117" stroke="#21262d" stroke-width="0.5"/>
<rect x="152" y="94" width="13" height="13" rx="2" fill="#006d32" stroke="#21262d" stroke-width="0.5"/>
<rect x="152" y="110" width="13" height="13" rx="2" fill="#006d32" stroke="#21262d" stroke-width="0.5"/>
<rect x="152" y="126" width="13" height="13" rx="2" fill="#0d1117" stroke="#21262d" stroke-width="0.5"/>
<rect x="168" y="30" width="13" height="13" rx="2" fill="#0d1117" stroke="#21262d" stroke-width="0.5"/>
<rect x="168" y="46" width="13" height="13" rx="2" fill="#26a641" stroke="#21262d" stroke-width="0.5"/>
<rect x="168" y="62" width="13" height="13" rx="2" fill="#0d1117" stroke="#21262d" stroke-width="0.5"/>
<rect x="168" y="78" width="13" height="13" rx="2" fill="#0d1117" stroke="#21262d" stroke-width="0.5"/>
<rect x="168" y="94" width="13" height="13" rx="2" fill="#0d1117" stroke="#21262d" stroke-width="0.5"/>
<rect x="168" y="110" width="13" height="13" rx="2" fill="#0d1117" stroke="#21262d" stroke-width="0.5"/>
<rect x="168" y="126" width="13" height="13" rx="2" fill="#0d1117" stroke="#21262d" stroke-width="0.5"/>
<rect x="184" y="30" width="13" height="13" rx="2" fill="#0d1117" stroke="#21262d" stroke-width="0.5"/>
<rect x="184" y="46" width="13" height="13" rx="2" fill="#0d1117" stroke="#21262d" stroke-width="0.5"/>
<rect x="184" y="62" width="13" height="13" rx="2" fill="#0d1117" stroke="#21262d" stroke-width="0.5"/>
<rect x="184" y="78" width="13" height="13" rx="2" fill="#006d32" stroke="#21262d" stroke-width="0.5"/>
<rect x="184" y="94" width="13" height="13" rx="2" fill="#006d32" stroke="#21262d" stroke-width="0.5"/>
<rect x="184" y="110" width="13" height="13" rx="2" fill="#006d32" stroke="#21262d" stroke-width="0.5"/>
<rect x="184" y="126" width="13" height="13" rx="2" fill="#0e4429" stroke="#21262d" stroke-width="0.5"/>
<rect x="200" y="30" width="13" height="13" rx="2" fill="#0e4429" stroke="#21262d" stroke-width="0.5"/>
<rect x="200" y="46" width="13" height="13" rx="2" fill="#006d32" stroke="#21262d" stroke-width="0.5"/>
<rect x="200" y="62" width="13" height="13" rx="2" fill="#006d32" stroke="#21262d" stroke-width="0.5"/>
<rect x="200" y="78" width="13" height="13" rx="2" fill="#0d1117" stroke="#21262d" stroke-width="0.5"/>
<rect x="200" y="94" width="13" height="13" rx="2" fill="#0d1117" stroke="#21262d" stroke-width="0.5"/>
<rect x="200" y="110" width="13" height="13" rx="2" fill="#006d32" stroke="#21262d" stroke-width="0.5"/>
<rect x="200" y="126" width="13" height="13" rx="2" fill="#0e4429" stroke="#21262d" stroke-width="0.5"/>
<rect x="216" y="30" width="13" height="13" rx="2" fill="#0d1117" stroke="#21262d" stroke-width="0.5"/>
<rect x="216" y="46" width="13" height="13" rx="2" fill="#006d32" stroke="#21262d" stroke-width="0.5"/>
<rect x="216" y="62" width="13" height="13" rx="2" fill="#0d1117" stroke="#21262d" stroke-width="0.5"/>
<rect x="216" y="78" width="13" height="13" rx="2" fill="#006d32" stroke="#21262d" stroke-width="0.5"/>
<rect x="216" y="94" width="13" height="13" rx="2" fill="#26a641" stroke="#21262d" stroke-width="0.5"/>
<rect x="216" y="110" width="13" height="13" rx="2" fill="#0d1117" stroke="#21262d" stroke-width="0.5"/>
<rect x="216" y="126" width="13" height="13" rx="2" fill="#0d1117" stroke="#21262d" stroke-width="0.5"/>
<rect x="232" y="30" width="13" height="13" rx="2" fill="#0e4429" stroke="#21262d" stroke-width="0.5"/>
<rect x="232" y="46" width="13" height="13" rx="2" fill="#006d32" stroke="#21262d" stroke-width="0.5"/>
<rect x="232" y="62" width="13" height="13" rx="2" fill="#0e4429" stroke="#21262d" stroke-width="0.5"/>
<rect x="232" y="78" width="13" height="13" rx="2" fill="#0e4429" stroke="#21262d" stroke-width="0.5"/>
<rect x="232" y="94" width="13" height="13" rx="2" fill="#006d32" stroke="#21262d" stroke-width="0.5"/>
<rect x="232" y="110" width="13" height="13" rx="2" fill="#006d32" stroke="#21262d" stroke-width="0.5"/>
<rect x="232" y="126" width="13" height="13" rx="2" fill="#0d1117" stroke="#21262d" stroke-width="0.5"/>
<rect x="248" y="30" width="13" height="13" rx="2" fill="#0e4429" stroke="#21262d" stroke-width="0.5"/>
<rect x="248" y="46" width="13" height="13" rx="2" fill="#0d1117" stroke="#21262d" stroke-width="0.5"/>
<rect x="248" y="62" width="13" height="13" rx="2" fill="#006d32" stroke="#21262d" stroke-width="0.5"/>
<rect x="248" y="78" width="13" height="13" rx="2" fill="#006d32" stroke="#21262d" stroke-width="0.5"/>
<rect x="248" y="94" width="13" height="13" rx="2" fill="#0e4429" stroke="#21262d" stroke-width="0.5"/>
<rect x="248" y="110" width="13" height="13" rx="2" fill="#0d1117" stroke="#21262d" stroke-width="0.5"/>
<rect x="248" y="126" width="13" height="13" rx="2" fill="#0d1117" stroke="#21262d" stroke-width="0.5"/>
<rect x="264" y="30" width="13" height="13" rx="2" fill="#0e4429" stroke="#21262d" stroke-width="0.5"/>
<rect x="264" y="46" width="13" height="13" rx="2" fill="#26a641" stroke="#21262d" stroke-width="0.5"/>
<rect x="264" y="62" width="13" height="13" rx="2" fill="#26a641" stroke="#21262d" stroke-width="0.5"/>
<rect x="264" y="78" width="13" height="13" rx="2" fill="#26a641" stroke="#21262d" stroke-width="0.5"/>
<rect x="264" y="94" width="13" height="13" rx="2" fill="#006d32" stroke="#21262d" stroke-width="0.5"/>
<rect x="264" y="110" width="13" height="13" rx="2" fill="#26a641" stroke="#21262d" stroke-width="0.5"/>
<rect x="264" y="126" width="13" height="13" rx="2" fill="#0d1117" stroke="#21262d" stroke-width="0.5"/>
<rect x="280" y="30" width="13" height="13" rx="2" fill="#0e4429" stroke="#21262d" stroke-width="0.5"/>
<rect x="280" y="46" width="13" height="13" rx="2" fill="#0e4429" stroke="#21262d" stroke-width="0.5"/>
<rect x="280" y="62" width="13" height="13" rx="2" fill="#006d32" stroke="#21262d" stroke-width="0.5"/>
<rect x="280" y="78" width="13" height="13" rx="2" fill="#0d1117" stroke="#21262d" stroke-width="0.5"/>
<rect x="280" y="94" width="13" height="13" rx="2" fill="#006d32" stroke="#21262d" stroke-width="0.5"/>
<rect x="280" y="110" width="13" height="13" rx="2" fill="#006d32" stroke="#21262d" stroke-width="0.5"/>
<rect x="280" y="126" width="13" height="13" rx="2" fill="#006d32" stroke="#21262d" stroke-width="0.5"/>
<rect x="296" y="30" width="13" height="13" rx="2" fill="#0d1117" stroke="#21262d" stroke-width="0.5"/>
<rect x="296" y="46" width="13" height="13" rx="2" fill="#006d32" stroke="#21262d" stroke-width="0.5"/>
<rect x="296" y="62" width="13" height="13" rx="2" fill="#26a641" stroke="#21262d" stroke-width="0.5"/>
<rect x="296" y="78" width="13" height="13" rx="2" fill="#006d32" stroke="#21262d" stroke-width="0.5"/>
<rect x="296" y="94" width="13" height="13" rx="2" fill="#0e4429" stroke="#21262d" stroke-width="0.5"/>
<rect x="296" y="110" width="13" height="13" rx="2" fill="#0d1117" stroke="#21262d" stroke-width="0.5"/>
<rect x="296" y="126" width="13" height="13" rx="2" fill="#0d1117" stroke="#21262d" stroke-width="0.5"/>
<rect x="312" y="30" width="13" height="13" rx="2" fill="#0e4429" stroke="#21262d" stroke-width="0.5"/>
<rect x="312" y="46" width="13" height="13" rx="2" fill="#006d32" stroke="#21262d" stroke-width="0.5"/>
<rect x="312" y="62" width="13" height="13" rx="2" fill="#0e4429" stroke="#21262d" stroke-width="0.5"/>
<rect x="312" y="78" width="13" height="13" rx="2" fill="#0e4429" stroke="#21262d" stroke-width="0.5"/>
<rect x="312" y="94" width="13" height="13" rx="2" fill="#26a641" stroke="#21262d" stroke-width="0.5"/>
<rect x="312" y="110" width="13" height="13" rx="2" fill="#0e4429" stroke="#21262d" stroke-width="0.5"/>
<rect x="312" y="126" width="13" height="13" rx="2" fill="#0e4429" stroke="#21262d" stroke-width="0.5"/>
<rect x="328" y="30" width="13" height="13" rx="2" fill="#0e4429" stroke="#21262d" stroke-width="0.5"/>
<rect x="328" y="46" width="13" height="13" rx="2" fill="#006d32" stroke="#21262d" stroke-width="0.5"/>
<rect x="328" y="62" width="13" height="13" rx="2" fill="#0e4429" stroke="#21262d" stroke-width="0.5"/>
<rect x="328" y="78" width="13" height="13" rx="2" fill="#0d1117" stroke="#21262d" stroke-width="0.5"/>
<rect x="328" y="94" width="13" height="13" rx="2" fill="#26a641" stroke="#21262d" stroke-width="0.5"/>
<rect x="328" y="110" width="13" height="13" rx="2" fill="#006d32" stroke="#21262d" stroke-width="0.5"/>
<rect x="328" y="126" width="13" height="13" rx="2" fill="#0d1117" stroke="#21262d" stroke-width="0.5"/>
<rect x="344" y="30" width="13" height="13" rx="2" fill="#0e4429" stroke="#21262d" stroke-width="0.5"/>
<rect x="344" y="46" width="13" height="13" rx="2" fill="#0e4429" stroke="#21262d" stroke-width="0.5"/>
<rect x="344" y="62" width="13" height="13" rx="2" fill="#006d32" stroke="#21262d" stroke-width="0.5"/>
<rect x="344" y="78" width="13" height="13" rx="2" fill="#0d1117" stroke="#21262d" stroke-width="0.5"/>
<rect x="344" y="94" width="13" height="13" rx="2" fill="#0d1117" stroke="#21262d" stroke-width="0.5"/>
<rect x="344" y="110" width="13" height="13" rx="2" fill="#006d32" stroke="#21262d" stroke-width="0.5"/>
<rect x="344" y="126" width="13" height="13" rx="2" fill="#0d1117" stroke="#21262d" stroke-width="0.5"/>
<rect x="360" y="30" width="13" height="13" rx="2" fill="#0e4429" stroke="#21262d" stroke-width="0.5"/>
<rect x="360" y="46" width="13" height="13" rx="2" fill="#006d32" stroke="#21262d" stroke-width="0.5"/>
<rect x="360" y="62" width="13" height="13" rx="2" fill="#0d1117" stroke="#21262d" stroke-width="0.5"/>
<rect x="360" y="78" width="13" height="13" rx="2" fill="#0d1117" stroke="#21262d" stroke-width="0.5"/>
<rect x="360" y="94" width="13" height="13" rx="2" fill="#0d1117" stroke="#21262d" stroke-width="0.5"/>
<rect x="360" y="110" width="13" height="13" rx="2" fill="#0d1117" stroke="#21262d" stroke-width="0.5"/>
<rect x="360" y="126" width="13" height="13" rx="2" fill="#0e4429" stroke="#21262d" stroke-width="0.5"/>
<rect x="376" y="30" width="13" height="13" rx="2" fill="#0e4429" stroke="#21262d" stroke-width="0.5"/>
<rect x="376" y="46" width="13" height="13" rx="2" fill="#006d32" stroke="#21262d" stroke-width="0.5"/>
<rect x="376" y="62" width="13" height="13" rx="2" fill="#0e4429" stroke="#21262d" stroke-width="0.5"/>
<rect x="376" y="78" width="13" height="13" rx="2" fill="#006d32" stroke="#21262d" stroke-width="0.5"/>
<rect x="376" y="94" width="13" height="13" rx="2" fill="#006d32" stroke="#21262d" stroke-width="0.5"/>
<rect x="376" y="110" width="13" height="13" rx="2" fill="#0d1117" stroke="#21262d" stroke-width="0.5"/>
<rect x="376" y="126" width="13" height="13" rx="2" fill="#0d1117" stroke="#21262d" stroke-width="0.5"/>
<rect x="392" y="30" width="13" height="13" rx="2" fill="#0e4429" stroke="#21262d" stroke-width="0.5"/>
<rect x="392" y="46" width="13" height="13" rx="2" fill="#26a641" stroke="#21262d" stroke-width="0.5"/>
<rect x="392" y="62" width="13" height="13" rx="2" fill="#0e4429" stroke="#21262d" stroke-width="0.5"/>
<rect x="392" y="78" width="13" height="13" rx="2" fill="#006d32" stroke="#21262d" stroke-width="0.5"/>
<rect x="392" y="94" width="13" height="13" rx="2" fill="#0e4429" stroke="#21262d" stroke-width="0.5"/>
<rect x="392" y="110" width="13" height="13" rx="2" fill="#26a641" stroke="#21262d" stroke-width="0.5"/>
<rect x="392" y="126" width="13" height="13" rx="2" fill="#0e4429" stroke="#21262d" stroke-width="0.5"/>
<rect x="408" y="30" width="13" height="13" rx="2" fill="#006d32" stroke="#21262d" stroke-width="0.5"/>
<rect x="408" y="46" width="13" height="13" rx="2" fill="#006d32" stroke="#21262d" stroke-width="0.5"/>
<rect x="408" y="62" width="13" height="13" rx="2" fill="#26a641" stroke="#21262d" stroke-width="0.5"/>
<rect x="408" y="78" width="13" height="13" rx="2" fill="#006d32" stroke="#21262d" stroke-width="0.5"/>
<rect x="408" y="94" width="13" height="13" rx="2" fill="#26a641" stroke="#21262d" stroke-width="0.5"/>
<rect x="408" y="110" width="13" height="13" rx="2" fill="#26a641" stroke="#21262d" stroke-width="0.5"/>
<rect x="408" y="126" width="13" height="13" rx="2" fill="#006d32" stroke="#21262d" stroke-width="0.5"/>
<rect x="424" y="30" width="13" height="13" rx="2" fill="#0d1117" stroke="#21262d" stroke-width="0.5"/>
<rect x="424" y="46" width="13" height="13" rx="2" fill="#26a641" stroke="#21262d" stroke-width="0.5"/>
<rect x="424" y="62" width="13" height="13" rx="2" fill="#26a641" stroke="#21262d" stroke-width="0.5"/>
<rect x="424" y="78" width="13" height="13" rx="2" fill="#26a641" stroke="#21262d" stroke-width="0.5"/>
<rect x="424" y="94" width="13" height="13" rx="2" fill="#26a641" stroke="#21262d" stroke-width="0.5"/>
<rect x="424" y="110" width="13" height="13" rx="2" fill="#0d1117" stroke="#21262d" stroke-width="0.5"/>
<rect x="424" y="126" width="13" height="13" rx="2" fill="#0d1117" stroke="#21262d" stroke-width="0.5"/>
<rect x="440" y="30" width="13" height="13" rx="2" fill="#0d1117" stroke="#21262d" stroke-width="0.5"/>
<rect x="440" y="46" width="13" height="13" rx="2" fill="#26a641" stroke="#21262d" stroke-width="0.5"/>
<rect x="440" y="62" width="13" height="13" rx="2" fill="#0d1117" stroke="#21262d" stroke-width="0.5"/>
<rect x="440" y="78" width="13" height="13" rx="2" fill="#0e4429" stroke="#21262d" stroke-width="0.5"/>
<rect x="440" y="94" width="13" height="13" rx="2" fill="#0d1117" stroke="#21262d" stroke-width="0.5"/>
<rect x="440" y="110" width="13" height="13" rx="2" fill="#006d32" stroke="#21262d" stroke-width="0.5"/>
<rect x="440" y="126" width="13" height="13" rx="2" fill="#0d1117" stroke="#21262d" stroke-width="0.5"/>
<rect x="456" y="30" width="13" height="13" rx="2" fill="#0d1117" stroke="#21262d" stroke-width="0.5"/>
<rect x="456" y="46" width="13" height="13" rx="2" fill="#0e4429" stroke="#21262d" stroke-width="0.5"/>
<rect x="456" y="62" width="13" height="13" rx="2" fill="#0d1117" stroke="#21262d" stroke-width="0.5"/>
<rect x="456" y="78" width="13" height="13" rx="2" fill="#0e4429" stroke="#21262d" stroke-width="0.5"/>
<rect x="456" y="94" width="13" height="13" rx="2" fill="#0d1117" stroke="#21262d" stroke-width="0.5"/>
<rect x="456" y="110" width="13" height="13" rx="2" fill="#0d1117" stroke="#21262d" stroke-width="0.5"/>
<rect x="456" y="126" width="13" height="13" rx="2" fill="#0d1117" stroke="#21262d" stroke-width="0.5"/>
<rect x="472" y="30" width="13" height="13" rx="2" fill="#0d1117" stroke="#21262d" stroke-width="0.5"/>
<rect x="472" y="46" width="13" height="13" rx="2" fill="#0e4429" stroke="#21262d" stroke-width="0.5"/>
<rect x="472" y="62" width="13" height="13" rx="2" fill="#006d32" stroke="#21262d" stroke-width="0.5"/>
<rect x="472" y="78" width="13" height="13" rx="2" fill="#006d32" stroke="#21262d" stroke-width="0.5"/>
<rect x="472" y="94" width="13" height="13" rx="2" fill="#0e4429" stroke="#21262d" stroke-width="0.5"/>
<rect x="472" y="110" width="13" height="13" rx="2" fill="#0d1117" stroke="#21262d" stroke-width="0.5"/>
<rect x="472" y="126" width="13" height="13" rx="2" fill="#0d1117" stroke="#21262d" stroke-width="0.5"/>
<rect x="488" y="30" width="13" height="13" rx="2" fill="#0d1117" stroke="#21262d" stroke-width="0.5"/>
<rect x="488" y="46" width="13" height="13" rx="2" fill="#006d32" stroke="#21262d" stroke-width="0.5"/>
<rect x="488" y="62" width="13" height="13" rx="2" fill="#0d1117" stroke="#21262d" stroke-width="0.5"/>
<rect x="488" y="78" width="13" height="13" rx="2" fill="#26a641" stroke="#21262d" stroke-width="0.5"/>
<rect x="488" y="94" width="13" height="13" rx="2" fill="#26a641" stroke="#21262d" stroke-width="0.5"/>
<rect x="488" y="110" width="13" height="13" rx="2" fill="#0e4429" stroke="#21262d" stroke-width="0.5"/>
<rect x="488" y="126" width="13" height="13" rx="2" fill="#39d353" stroke="#21262d" stroke-width="0.5"/>
<rect x="504" y="30" width="13" height="13" rx="2" fill="#0d1117" stroke="#21262d" stroke-width="0.5"/>
<rect x="504" y="46" width="13" height="13" rx="2" fill="#26a641" stroke="#21262d" stroke-width="0.5"/>
<rect x="504" y="62" width="13" height="13" rx="2" fill="#006d32" stroke="#21262d" stroke-width="0.5"/>
<rect x="504" y="78" width="13" height="13" rx="2" fill="#006d32" stroke="#21262d" stroke-width="0.5"/>
<rect x="504" y="94" width="13" height="13" rx="2" fill="#006d32" stroke="#21262d" stroke-width="0.5"/>
<rect x="504" y="110" width="13" height="13" rx="2" fill="#39d353" stroke="#21262d" stroke-width="0.5"/>
<rect x="504" y="126" width="13" height="13" rx="2" fill="#0d1117" stroke="#21262d" stroke-width="0.5"/>
<rect x="520" y="30" width="13" height="13" rx="2" fill="#0d1117" stroke="#21262d" stroke-width="0.5"/>
<rect x="520" y="46" width="13" height="13" rx="2" fill="#39d353" stroke="#21262d" stroke-width="0.5"/>
<rect x="520" y="62" width="13" height="13" rx="2" fill="#26a641" stroke="#21262d" stroke-width="0.5"/>
<rect x="520" y="78" width="13" height="13" rx="2" fill="#39d353" stroke="#21262d" stroke-width="0.5"/>
<rect x="520" y="94" width="13" height="13" rx="2" fill="#0d1117" stroke="#21262d" stroke-width="0.5"/>
<rect x="520" y="110" width="13" height="13" rx="2" fill="#0d1117" stroke="#21262d" stroke-width="0.5"/>
<rect x="520" y="126" width="13" height="13" rx="2" fill="#0d1117" stroke="#21262d" stroke-width="0.5"/>
<rect x="536" y="30" width="13" height="13" rx="2" fill="#0d1117" stroke="#21262d" stroke-width="0.5"/>
<rect x="536" y="46" width="13" height="13" rx="2" fill="#0d1117" stroke="#21262d" stroke-width="0.5"/>
<rect x="536" y="62" width="13" height="13" rx="2" fill="#0d1117" stroke="#21262d" stroke-width="0.5"/>
<rect x="536" y="78" width="13" height="13" rx="2" fill="#0d1117" stroke="#21262d" stroke-width="0.5"/>
<rect x="536" y="94" width="13" height="13" rx="2" fill="#0d1117" stroke="#21262d" stroke-width="0.5"/>
<rect x="536" y="110" width="13" height="13" rx="2" fill="#0d1117" stroke="#21262d" stroke-width="0.5"/>
<rect x="536" y="126" width="13" height="13" rx="2" fill="#0d1117" stroke="#21262d" stroke-width="0.5"/>
<rect x="552" y="30" width="13" height="13" rx="2" fill="#0d1117" stroke="#21262d" stroke-width="0.5"/>
<rect x="552" y="46" width="13" height="13" rx="2" fill="#0d1117" stroke="#21262d" stroke-width="0.5"/>
<rect x="552" y="62" width="13" height="13" rx="2" fill="#0d1117" stroke="#21262d" stroke-width="0.5"/>
<rect x="552" y="78" width="13" height="13" rx="2" fill="#0d1117" stroke="#21262d" stroke-width="0.5"/>
<rect x="552" y="94" width="13" height="13" rx="2" fill="#0d1117" stroke="#21262d" stroke-width="0.5"/>
<rect x="552" y="110" width="13" height="13" rx="2" fill="#0d1117" stroke="#21262d" stroke-width="0.5"/>
<rect x="552" y="126" width="13" height="13" rx="2" fill="#0d1117" stroke="#21262d" stroke-width="0.5"/>
<rect x="568" y="30" width="13" height="13" rx="2" fill="#0d1117" stroke="#21262d" stroke-width="0.5"/>
<rect x="568" y="46" width="13" height="13" rx="2" fill="#0d1117" stroke="#21262d" stroke-width="0.5"/>
<rect x="568" y="62" width="13" height="13" rx="2" fill="#0d1117" stroke="#21262d" stroke-width="0.5"/>
<rect x="568" y="78" width="13" height="13" rx="2" fill="#0d1117" stroke="#21262d" stroke-width="0.5"/>
<rect x="568" y="94" width="13" height="13" rx="2" fill="#0d1117" stroke="#21262d" stroke-width="0.5"/>
<rect x="568" y="110" width="13" height="13" rx="2" fill="#0d1117" stroke="#21262d" stroke-width="0.5"/>
<rect x="568" y="126" width="13" height="13" rx="2" fill="#0d1117" stroke="#21262d" stroke-width="0.5"/>
<rect x="584" y="30" width="13" height="13" rx="2" fill="#0d1117" stroke="#21262d" stroke-width="0.5"/>
<rect x="584" y="46" width="13" height="13" rx="2" fill="#0d1117" stroke="#21262d" stroke-width="0.5"/>
<rect x="584" y="62" width="13" height="13" rx="2" fill="#0d1117" stroke="#21262d" stroke-width="0.5"/>
<rect x="584" y="78" width="13" height="13" rx="2" fill="#0d1117" stroke="#21262d" stroke-width="0.5"/>
<rect x="584" y="94" width="13" height="13" rx="2" fill="#39d353" stroke="#21262d" stroke-width="0.5"/>
<rect x="584" y="110" width="13" height="13" rx="2" fill="#0d1117" stroke="#21262d" stroke-width="0.5"/>
<rect x="584" y="126" width="13" height="13" rx="2" fill="#0d1117" stroke="#21262d" stroke-width="0.5"/>
<rect x="600" y="30" width="13" height="13" rx="2" fill="#0d1117" stroke="#21262d" stroke-width="0.5"/>
<rect x="600" y="46" width="13" height="13" rx="2" fill="#0d1117" stroke="#21262d" stroke-width="0.5"/>
<rect x="600" y="62" width="13" height="13" rx="2" fill="#0d1117" stroke="#21262d" stroke-width="0.5"/>
<rect x="600" y="78" width="13" height="13" rx="2" fill="#0d1117" stroke="#21262d" stroke-width="0.5"/>
<rect x="600" y="94" width="13" height="13" rx="2" fill="#0d1117" stroke="#21262d" stroke-width="0.5"/>
<rect x="600" y="110" width="13" height="13" rx="2" fill="#0d1117" stroke="#21262d" stroke-width="0.5"/>
<rect x="600" y="126" width="13" height="13" rx="2" fill="#0d1117" stroke="#21262d" stroke-width="0.5"/>
<rect x="616" y="30" width="13" height="13" rx="2" fill="#0d1117" stroke="#21262d" stroke-width="0.5"/>
<rect x="616" y="46" width="13" height="13" rx="2" fill="#0d1117" stroke="#21262d" stroke-width="0.5"/>
<rect x="616" y="62" width="13" height="13" rx="2" fill="#0d1117" stroke="#21262d" stroke-width="0.5"/>
<rect x="616" y="78" width="13" height="13" rx="2" fill="#0d1117" stroke="#21262d" stroke-width="0.5"/>
<rect x="616" y="94" width="13" height="13" rx="2" fill="#0d1117" stroke="#21262d" stroke-width="0.5"/>
<rect x="616" y="110" width="13" height="13" rx="2" fill="#0d1117" stroke="#21262d" stroke-width="0.5"/>
<rect x="616" y="126" width="13" height="13" rx="2" fill="#0d1117" stroke="#21262d" stroke-width="0.5"/>
<rect x="632" y="30" width="13" height="13" rx="2" fill="#0d1117" stroke="#21262d" stroke-width="0.5"/>
<rect x="632" y="46" width="13" height="13" rx="2" fill="#0d1117" stroke="#21262d" stroke-width="0.5"/>
<rect x="632" y="62" width="13" height="13" rx="2" fill="#0d1117" stroke="#21262d" stroke-width="0.5"/>
<rect x="632" y="78" width="13" height="13" rx="2" fill="#0d1117" stroke="#21262d" stroke-width="0.5"/>
<rect x="632" y="94" width="13" height="13" rx="2" fill="#0d1117" stroke="#21262d" stroke-width="0.5"/>
<rect x="632" y="110" width="13" height="13" rx="2" fill="#0d1117" stroke="#21262d" stroke-width="0.5"/>
<rect x="632" y="126" width="13" height="13" rx="2" fill="#0d1117" stroke="#21262d" stroke-width="0.5"/>
<rect x="648" y="30" width="13" height="13" rx="2" fill="#0d1117" stroke="#21262d" stroke-width="0.5"/>
<rect x="648" y="46" width="13" height="13" rx="2" fill="#0d1117" stroke="#21262d" stroke-width="0.5"/>
<rect x="648" y="62" width="13" height="13" rx="2" fill="#0d1117" stroke="#21262d" stroke-width="0.5"/>
<rect x="648" y="78" width="13" height="13" rx="2" fill="#0d1117" stroke="#21262d" stroke-width="0.5"/>
<rect x="648" y="94" width="13" height="13" rx="2" fill="#0d1117" stroke="#21262d" stroke-width="0.5"/>
<rect x="648" y="110" width="13" height="13" rx="2" fill="#0d1117" stroke="#21262d" stroke-width="0.5"/>
<rect x="648" y="126" width="13" height="13" rx="2" fill="#0d1117" stroke="#21262d" stroke-width="0.5"/>
<rect x="664" y="30" width="13" height="13" rx="2" fill="#0d1117" stroke="#21262d" stroke-width="0.5"/>
<rect x="664" y="46" width="13" height="13" rx="2" fill="#0d1117" stroke="#21262d" stroke-width="0.5"/>
<rect x="664" y="62" width="13" height="13" rx="2" fill="#0d1117" stroke="#21262d" stroke-width="0.5"/>
<rect x="664" y="78" width="13" height="13" rx="2" fill="#0d1117" stroke="#21262d" stroke-width="0.5"/>
<rect x="664" y="94" width="13" height="13" rx="2" fill="#0d1117" stroke="#21262d" stroke-width="0.5"/>
<rect x="664" y="110" width="13" height="13" rx="2" fill="#0d1117" stroke="#21262d" stroke-width="0.5"/>
<rect x="664" y="126" width="13" height="13" rx="2" fill="#0d1117" stroke="#21262d" stroke-width="0.5"/>
<rect x="680" y="30" width="13" height="13" rx="2" fill="#0d1117" stroke="#21262d" stroke-width="0.5"/>
<rect x="680" y="46" width="13" height="13" rx="2" fill="#0d1117" stroke="#21262d" stroke-width="0.5"/>
<rect x="680" y="62" width="13" height="13" rx="2" fill="#0d1117" stroke="#21262d" stroke-width="0.5"/>
<rect x="680" y="78" width="13" height="13" rx="2" fill="#0d1117" stroke="#21262d" stroke-width="0.5"/>
<rect x="680" y="94" width="13" height="13" rx="2" fill="#0d1117" stroke="#21262d" stroke-width="0.5"/>
<rect x="680" y="110" width="13" height="13" rx="2" fill="#0d1117" stroke="#21262d" stroke-width="0.5"/>
<rect x="680" y="126" width="13" height="13" rx="2" fill="#0d1117" stroke="#21262d" stroke-width="0.5"/>
<rect x="696" y="30" width="13" height="13" rx="2" fill="#0d1117" stroke="#21262d" stroke-width="0.5"/>
<rect x="696" y="46" width="13" height="13" rx="2" fill="#0d1117" stroke="#21262d" stroke-width="0.5"/>
<rect x="696" y="62" width="13" height="13" rx="2" fill="#0d1117" stroke="#21262d" stroke-width="0.5"/>
<rect x="696" y="78" width="13" height="13" rx="2" fill="#0d1117" stroke="#21262d" stroke-width="0.5"/>
<rect x="696" y="94" width="13" height="13" rx="2" fill="#0d1117" stroke="#21262d" stroke-width="0.5"/>
<rect x="696" y="110" width="13" height="13" rx="2" fill="#0d1117" stroke="#21262d" stroke-width="0.5"/>
<rect x="696" y="126" width="13" height="13" rx="2" fill="#0d1117" stroke="#21262d" stroke-width="0.5"/>
<rect x="712" y="30" width="13" height="13" rx="2" fill="#0d1117" stroke="#21262d" stroke-width="0.5"/>
<rect x="712" y="46" width="13" height="13" rx="2" fill="#0d1117" stroke="#21262d" stroke-width="0.5"/>
<rect x="712" y="62" width="13" height="13" rx="2" fill="#0d1117" stroke="#21262d" stroke-width="0.5"/>
<rect x="712" y="78" width="13" height="13" rx="2" fill="#0d1117" stroke="#21262d" stroke-width="0.5"/>
<rect x="712" y="94" width="13" height="13" rx="2" fill="#0d1117" stroke="#21262d" stroke-width="0.5"/>
<rect x="712" y="110" width="13" height="13" rx="2" fill="#0d1117" stroke="#21262d" stroke-width="0.5"/>
<rect x="712" y="126" width="13" height="13" rx="2" fill="#0d1117" stroke="#21262d" stroke-width="0.5"/>
<rect x="728" y="30" width="13" height="13" rx="2" fill="#0d1117" stroke="#21262d" stroke-width="0.5"/>
<rect x="728" y="46" width="13" height="13" rx="2" fill="#0d1117" stroke="#21262d" stroke-width="0.5"/>
<rect x="728" y="62" width="13" height="13" rx="2" fill="#0d1117" stroke="#21262d" stroke-width="0.5"/>
<rect x="728" y="78" width="13" height="13" rx="2" fill="#0d1117" stroke="#21262d" stroke-width="0.5"/>
<rect x="728" y="94" width="13" height="13" rx="2" fill="#0d1117" stroke="#21262d" stroke-width="0.5"/>
<rect x="728" y="110" width="13" height="13" rx="2" fill="#0d1117" stroke="#21262d" stroke-width="0.5"/>
<rect x="728" y="126" width="13" height="13" rx="2" fill="#0d1117" stroke="#21262d" stroke-width="0.5"/>
<rect x="744" y="30" width="13" height="13" rx="2" fill="#0d1117" stroke="#21262d" stroke-width="0.5"/>
<rect x="744" y="46" width="13" height="13" rx="2" fill="#0d1117" stroke="#21262d" stroke-width="0.5"/>
<rect x="744" y="62" width="13" height="13" rx="2" fill="#0d1117" stroke="#21262d" stroke-width="0.5"/>
<rect x="744" y="78" width="13" height="13" rx="2" fill="#0d1117" stroke="#21262d" stroke-width="0.5"/>
<rect x="744" y="94" width="13" height="13" rx="2" fill="#0d1117" stroke="#21262d" stroke-width="0.5"/>
<rect x="744" y="110" width="13" height="13" rx="2" fill="#0d1117" stroke="#21262d" stroke-width="0.5"/>
<rect x="744" y="126" width="13" height="13" rx="2" fill="#0d1117" stroke="#21262d" stroke-width="0.5"/>
<rect x="760" y="30" width="13" height="13" rx="2" fill="#0d1117" stroke="#21262d" stroke-width="0.5"/>
<rect x="760" y="46" width="13" height="13" rx="2" fill="#0d1117" stroke="#21262d" stroke-width="0.5"/>
<rect x="760" y="62" width="13" height="13" rx="2" fill="#0d1117" stroke="#21262d" stroke-width="0.5"/>
<rect x="760" y="78" width="13" height="13" rx="2" fill="#0d1117" stroke="#21262d" stroke-width="0.5"/>
<rect x="760" y="94" width="13" height="13" rx="2" fill="#0d1117" stroke="#21262d" stroke-width="0.5"/>
<rect x="760" y="110" width="13" height="13" rx="2" fill="#0d1117" stroke="#21262d" stroke-width="0.5"/>
<rect x="760" y="126" width="13" height="13" rx="2" fill="#0d1117" stroke="#21262d" stroke-width="0.5"/>
<rect x="776" y="30" width="13" height="13" rx="2" fill="#0d1117" stroke="#21262d" stroke-width="0.5"/>
<rect x="776" y="46" width="13" height="13" rx="2" fill="#0d1117" stroke="#21262d" stroke-width="0.5"/>
<rect x="776" y="62" width="13" height="13" rx="2" fill="#0d1117" stroke="#21262d" stroke-width="0.5"/>
<rect x="776" y="78" width="13" height="13" rx="2" fill="#0d1117" stroke="#21262d" stroke-width="0.5"/>
<rect x="776" y="94" width="13" height="13" rx="2" fill="#0d1117" stroke="#21262d" stroke-width="0.5"/>
<rect x="776" y="110" width="13" height="13" rx="2" fill="#0d1117" stroke="#21262d" stroke-width="0.5"/>
<rect x="776" y="126" width="13" height="13" rx="2" fill="#0d1117" stroke="#21262d" stroke-width="0.5"/>
<rect x="792" y="30" width="13" height="13" rx="2" fill="#0d1117" stroke="#21262d" stroke-width="0.5"/>
<rect x="792" y="46" width="13" height="13" rx="2" fill="#0d1117" stroke="#21262d" stroke-width="0.5"/>
<rect x="792" y="62" width="13" height="13" rx="2" fill="#0d1117" stroke="#21262d" stroke-width="0.5"/>
<rect x="792" y="78" width="13" height="13" rx="2" fill="#0d1117" stroke="#21262d" stroke-width="0.5"/>
<rect x="792" y="94" width="13" height="13" rx="2" fill="#0d1117" stroke="#21262d" stroke-width="0.5"/>
<rect x="792" y="110" width="13" height="13" rx="2" fill="#0d1117" stroke="#21262d" stroke-width="0.5"/>
<rect x="792" y="126" width="13" height="13" rx="2" fill="#0d1117" stroke="#21262d" stroke-width="0.5"/>
<rect x="808" y="30" width="13" height="13" rx="2" fill="#0d1117" stroke="#21262d" stroke-width="0.5"/>
<rect x="808" y="46" width="13" height="13" rx="2" fill="#0d1117" stroke="#21262d" stroke-width="0.5"/>
<rect x="808" y="62" width="13" height="13" rx="2" fill="#0d1117" stroke="#21262d" stroke-width="0.5"/>
<rect x="808" y="78" width="13" height="13" rx="2" fill="#0d1117" stroke="#21262d" stroke-width="0.5"/>
<rect x="808" y="94" width="13" height="13" rx="2" fill="#0d1117" stroke="#21262d" stroke-width="0.5"/>
<rect x="808" y="110" width="13" height="13" rx="2" fill="#0d1117" stroke="#21262d" stroke-width="0.5"/>
<rect x="808" y="126" width="13" height="13" rx="2" fill="#0d1117" stroke="#21262d" stroke-width="0.5"/>
<rect x="824" y="30" width="13" height="13" rx="2" fill="#0d1117" stroke="#21262d" stroke-width="0.5"/>
<rect x="824" y="46" width="13" height="13" rx="2" fill="#0d1117" stroke="#21262d" stroke-width="0.5"/>
<rect x="824" y="62" width="13" height="13" rx="2" fill="#0d1117" stroke="#21262d" stroke-width="0.5"/>
<rect x="824" y="78" width="13" height="13" rx="2" fill="#0d1117" stroke="#21262d" stroke-width="0.5"/>
<rect x="824" y="94" width="13" height="13" rx="2" fill="#0d1117" stroke="#21262d" stroke-width="0.5"/>
<rect x="824" y="110" width="13" height="13" rx="2" fill="#0d1117" stroke="#21262d" stroke-width="0.5"/>
<rect x="824" y="126" width="13" height="13" rx="2" fill="#0d1117" stroke="#21262d" stroke-width="0.5"/>
<rect x="840" y="30" width="13" height="13" rx="2" fill="#0d1117" stroke="#21262d" stroke-width="0.5"/>
<rect x="840" y="46" width="13" height="13" rx="2" fill="#0d1117" stroke="#21262d" stroke-width="0.5"/>
<rect x="840" y="62" width="13" height="13" rx="2" fill="#0d1117" stroke="#21262d" stroke-width="0.5"/>
<rect x="840" y="78" width="13" height="13" rx="2" fill="#0d1117" stroke="#21262d" stroke-width="0.5"/>
<rect x="840" y="94" width="13" height="13" rx="2" fill="#0d1117" stroke="#21262d" stroke-width="0.5"/>
<rect x="840" y="110" width="13" height="13" rx="2" fill="#0d1117" stroke="#21262d" stroke-width="0.5"/>
<rect x="840" y="126" width="13" height="13" rx="2" fill="#0d1117" stroke="#21262d" stroke-width="0.5"/>
<rect x="856" y="30" width="13" height="13" rx="2" fill="#0d1117" stroke="#21262d" stroke-width="0.5"/>
<rect x="856" y="46" width="13" height="13" rx="2" fill="#0d1117" stroke="#21262d" stroke-width="0.5"/>
<rect x="856" y="62" width="13" height="13" rx="2" fill="#0d1117" stroke="#21262d" stroke-width="0.5"/>
<rect x="856" y="78" width="13" height="13" rx="2" fill="#0d1117" stroke="#21262d" stroke-width="0.5"/>
<rect x="856" y="94" width="13" height="13" rx="2" fill="#0d1117" stroke="#21262d" stroke-width="0.5"/>
<rect x="856" y="110" width="13" height="13" rx="2" fill="#0d1117" stroke="#21262d" stroke-width="0.5"/>
<rect x="856" y="126" width="13" height="13" rx="2" fill="#0d1117" stroke="#21262d" stroke-width="0.5"/>
<rect x="872" y="30" width="13" height="13" rx="2" fill="#0d1117" stroke="#21262d" stroke-width="0.5"/>
<rect x="872" y="46" width="13" height="13" rx="2" fill="#0d1117" stroke="#21262d" stroke-width="0.5"/>
<rect x="872" y="62" width="13" height="13" rx="2" fill="#0d1117" stroke="#21262d" stroke-width="0.5"/>
<rect x="872" y="78" width="13" height="13" rx="2" fill="#0d1117" stroke="#21262d" stroke-width="0.5"/>
<rect x="872" y="94" width="13" height="13" rx="2" fill="#0d1117" stroke="#21262d" stroke-width="0.5"/>
<rect x="872" y="110" width="13" height="13" rx="2" fill="#0d1117" stroke="#21262d" stroke-width="0.5"/>
<rect x="872" y="126" width="13" height="13" rx="2" fill="#0d1117" stroke="#21262d" stroke-width="0.5"/>

<!-- Ship sailing along reef-avoiding path -->
<g transform="translate(-48,-20) scale(0.85)">
  <animateMotion dur="25s" repeatCount="indefinite"
    rotate="auto" keyPoints="0;1" keyTimes="0;1" calcMode="linear">
    <mpath href="#shipRoute"/>
  </animateMotion>
  <animateTransform attributeName="transform" type="translate"
    values="0,0;0,-2;0,0;0,2;0,0"
    dur="3s" repeatCount="indefinite" additive="sum"/>

    <g id="wake" opacity="0.25">
      <line x1="-8" y1="34" x2="-60" y2="42" stroke="#58a6ff" stroke-width="1.2"
            stroke-dasharray="4,7">
        <animate attributeName="stroke-dashoffset" values="0;-22" dur="1.2s" repeatCount="indefinite"/>
      </line>
      <line x1="-8" y1="30" x2="-70" y2="38" stroke="#58a6ff" stroke-width="0.8"
            stroke-dasharray="3,8">
        <animate attributeName="stroke-dashoffset" values="0;-22" dur="1.5s" repeatCount="indefinite"/>
      </line>
      <line x1="-8" y1="36" x2="-50" y2="44" stroke="#58a6ff" stroke-width="0.6"
            stroke-dasharray="2,9">
        <animate attributeName="stroke-dashoffset" values="0;-22" dur="1.8s" repeatCount="indefinite"/>
      </line>
    </g>
    

    <g id="bowwave" opacity="0.3">
      <path d="M94,36 Q100,30 98,24" fill="none" stroke="#58a6ff" stroke-width="1">
        <animate attributeName="d"
          values="M94,36 Q100,30 98,24;M94,36 Q102,28 96,22;M94,36 Q100,30 98,24"
          dur="2s" repeatCount="indefinite"/>
      </path>
      <path d="M96,38 Q104,32 100,26" fill="none" stroke="#58a6ff" stroke-width="0.6" opacity="0.5">
        <animate attributeName="d"
          values="M96,38 Q104,32 100,26;M96,38 Q106,30 98,24;M96,38 Q104,32 100,26"
          dur="2.3s" repeatCount="indefinite"/>
      </path>
    </g>
    

    <g id="ship">
      <!-- Hull -->
      <path d="M0,28 L6,38 L90,38 L96,28 L86,28 L83,32 L13,32 L10,28 Z"
            fill="#c8ccd0" stroke="#8b9298" stroke-width="0.7"/>
      <!-- Waterline stripe -->
      <path d="M8,32 L88,32 L86,36 L10,36 Z"
            fill="#8b4c4c" opacity="0.5"/>
      <!-- Deck -->
      <rect x="14" y="18" width="66" height="10" rx="1.5"
            fill="#6e7681" stroke="#8b9298" stroke-width="0.5"/>
      <!-- Superstructure -->
      <rect x="20" y="5" width="24" height="13" rx="1.5"
            fill="#8b9298" stroke="#6e7681" stroke-width="0.7"/>
      <!-- Bridge windows -->
      <rect x="23" y="8" width="5" height="3.5" rx="0.7" fill="#58a6ff" opacity="0.9"/>
      <rect x="30" y="8" width="5" height="3.5" rx="0.7" fill="#58a6ff" opacity="0.9"/>
      <rect x="37" y="8" width="5" height="3.5" rx="0.7" fill="#58a6ff" opacity="0.9"/>
      <!-- Bridge top -->
      <rect x="22" y="2" width="20" height="3" rx="1" fill="#6e7681"/>
      <!-- Mast -->
      <line x1="32" y1="-6" x2="32" y2="2" stroke="#8b9298" stroke-width="2"/>
      <!-- Mast cross -->
      <line x1="27" y1="-3" x2="37" y2="-3" stroke="#8b9298" stroke-width="1"/>
      <!-- Navigation light -->
      <circle cx="32" cy="-6" r="1.5" fill="#da3633" opacity="0.8">
        <animate attributeName="opacity" values="0.8;0.3;0.8" dur="2s" repeatCount="indefinite"/>
      </circle>
      <!-- Funnel -->
      <rect x="56" y="8" width="14" height="10" rx="1.5"
            fill="#da3633" stroke="#8b9298" stroke-width="0.7"/>
      <!-- Funnel stripe -->
      <rect x="56" y="12" width="14" height="3" fill="#f0f6fc" opacity="0.3"/>
      <!-- Funnel top -->
      <rect x="55" y="6" width="16" height="2" rx="1" fill="#4a1010"/>
      <!-- Smoke puffs -->
      <circle cx="63" cy="2" r="3" fill="#6e7681" opacity="0.35">
        <animate attributeName="cy" values="2;-6;-16" dur="4s" repeatCount="indefinite"/>
        <animate attributeName="opacity" values="0.35;0.15;0" dur="4s" repeatCount="indefinite"/>
        <animate attributeName="r" values="3;5;7" dur="4s" repeatCount="indefinite"/>
      </circle>
      <circle cx="66" cy="4" r="2.5" fill="#6e7681" opacity="0.25">
        <animate attributeName="cy" values="4;-4;-14" dur="4.5s" repeatCount="indefinite"/>
        <animate attributeName="opacity" values="0.25;0.1;0" dur="4.5s" repeatCount="indefinite"/>
        <animate attributeName="r" values="2.5;4;6" dur="4.5s" repeatCount="indefinite"/>
      </circle>
      <circle cx="60" cy="3" r="2" fill="#6e7681" opacity="0.2">
        <animate attributeName="cy" values="3;-5;-13" dur="5s" repeatCount="indefinite"/>
        <animate attributeName="opacity" values="0.2;0.08;0" dur="5s" repeatCount="indefinite"/>
        <animate attributeName="r" values="2;3.5;5" dur="5s" repeatCount="indefinite"/>
      </circle>
      <!-- Cargo containers row 1 -->
      <rect x="15" y="19" width="7" height="7" rx="0.7" fill="#1f6feb" opacity="0.8"/>
      <rect x="23" y="19" width="7" height="7" rx="0.7" fill="#da3633" opacity="0.8"/>
      <rect x="46" y="19" width="7" height="7" rx="0.7" fill="#2ea043" opacity="0.8"/>
      <rect x="54" y="19" width="7" height="7" rx="0.7" fill="#1f6feb" opacity="0.8"/>
      <rect x="66" y="19" width="7" height="7" rx="0.7" fill="#da3633" opacity="0.8"/>
      <rect x="74" y="19" width="7" height="7" rx="0.7" fill="#e3b341" opacity="0.8"/>
      <!-- Bow shape -->
      <path d="M86,28 L96,28 L93,33 L88,36 L86,32 Z"
            fill="#adb5bd" stroke="#8b9298" stroke-width="0.5"/>
    </g>
    
</g>
<text x="908" y="187" fill="#484f58" font-size="10" font-family="system-ui,sans-serif" text-anchor="end" font-style="italic">github.com/hermandoronin</text>
</svg>